<svg version="1.1" xmlns="http://www.w3.org/2000/svg" viewBox="0 0 143 103" width="143" height="103">
  <!-- svg-source:excalidraw -->
  
  <defs>
    <style>
      @font-face {
        font-family: "Virgil";
        src: url("https://unpkg.com/@excalidraw/excalidraw@0.13.0/dist/excalidraw-assets/Virgil.woff2");
      }
      @font-face {
        font-family: "Cascadia";
        src: url("https://unpkg.com/@excalidraw/excalidraw@0.13.0/dist/excalidraw-assets/Cascadia.woff2");
      }
    </style>
  </defs>
  <rect x="0" y="0" width="143" height="103" fill="#ffffff"></rect><g stroke-linecap="round" transform="translate(10 10) rotate(0 61.5 41.5)"><path d="M61.65 1.16 C79.64 12.29, 97.45 24.32, 121.09 42.81 M61.54 -0.29 C77.89 10.48, 93.66 21.84, 123.47 42.83 M122.66 40.17 C98.39 56.12, 78.97 73.02, 63.25 83.77 M123.04 41.99 C103.91 55.23, 84.72 67.58, 61.86 83.48 M62.53 81.49 C44.38 72.13, 25.43 57.83, 0.24 41.78 M61.42 83.4 C43.45 72.21, 24.74 59.64, -0.49 42.01 M0.52 40.34 C25.27 25.97, 46.59 9.76, 60.76 -0.99 M0.37 41.06 C17.88 30.03, 35.29 18.39, 61.85 0.29" stroke="#000000" stroke-width="1" fill="none"></path></g><g transform="translate(53.5 38) rotate(0 18 13.5)"><text x="18" y="19" font-family="Virgil, Segoe UI Emoji" font-size="20px" fill="#000000" text-anchor="middle" style="white-space: pre;" direction="ltr">Poli</text></g></svg>